<mxfile host="app.diagrams.net" modified="2023-07-24T12:20:33.849Z" agent="Mozilla/5.0 (Windows NT 10.0; Win64; x64) AppleWebKit/537.36 (KHTML, like Gecko) Chrome/114.0.0.0 Safari/537.36" etag="cbws4vk-cMsLua7B-e31" version="21.6.5" type="github">
  <diagram name="Page-1" id="0783ab3e-0a74-02c8-0abd-f7b4e66b4bec">
    <mxGraphModel dx="1420" dy="784" grid="1" gridSize="10" guides="1" tooltips="1" connect="1" arrows="1" fold="1" page="1" pageScale="1" pageWidth="850" pageHeight="1100" background="none" math="0" shadow="0">
      <root>
        <mxCell id="0" />
        <mxCell id="1" parent="0" />
        <mxCell id="1c1d494c118603dd-1" value="Frontend ToDo" style="swimlane;html=1;childLayout=stackLayout;startSize=20;rounded=0;shadow=0;comic=0;labelBackgroundColor=none;strokeWidth=1;fontFamily=Verdana;fontSize=12;align=center;" parent="1" vertex="1">
          <mxGeometry x="40" y="20" width="1680" height="990" as="geometry" />
        </mxCell>
        <mxCell id="1c1d494c118603dd-2" value="Index" style="swimlane;html=1;startSize=20;" parent="1c1d494c118603dd-1" vertex="1">
          <mxGeometry y="20" width="250" height="970" as="geometry" />
        </mxCell>
        <mxCell id="Hatcnh2Sir8SRmg99cJd-18" value="index.js" style="rounded=0;whiteSpace=wrap;html=1;fillColor=#f8cecc;strokeColor=#b85450;" parent="1c1d494c118603dd-2" vertex="1">
          <mxGeometry x="72.5" y="400" width="105" height="40" as="geometry" />
        </mxCell>
        <mxCell id="Hatcnh2Sir8SRmg99cJd-23" value="Запуск авторизации" style="text;html=1;strokeColor=none;fillColor=none;align=center;verticalAlign=middle;whiteSpace=wrap;rounded=0;" parent="1c1d494c118603dd-2" vertex="1">
          <mxGeometry x="150" y="270" width="100" height="30" as="geometry" />
        </mxCell>
        <mxCell id="1c1d494c118603dd-3" value="Components" style="swimlane;html=1;startSize=20;" parent="1c1d494c118603dd-1" vertex="1">
          <mxGeometry x="250" y="20" width="1060" height="970" as="geometry" />
        </mxCell>
        <mxCell id="Hatcnh2Sir8SRmg99cJd-30" style="edgeStyle=orthogonalEdgeStyle;rounded=0;orthogonalLoop=1;jettySize=auto;html=1;entryX=0;entryY=0.5;entryDx=0;entryDy=0;" parent="1c1d494c118603dd-3" source="Hatcnh2Sir8SRmg99cJd-2" target="Hatcnh2Sir8SRmg99cJd-1" edge="1">
          <mxGeometry relative="1" as="geometry" />
        </mxCell>
        <mxCell id="Hatcnh2Sir8SRmg99cJd-2" value="Authorization.jsx" style="rounded=0;whiteSpace=wrap;html=1;fillColor=#dae8fc;strokeColor=#6c8ebf;" parent="1c1d494c118603dd-3" vertex="1">
          <mxGeometry x="30" y="280" width="105" height="40" as="geometry" />
        </mxCell>
        <mxCell id="QIrwqinoMJVfx_VkA9Hf-7" style="edgeStyle=orthogonalEdgeStyle;rounded=0;orthogonalLoop=1;jettySize=auto;html=1;entryX=1;entryY=0.5;entryDx=0;entryDy=0;" edge="1" parent="1c1d494c118603dd-3" source="Hatcnh2Sir8SRmg99cJd-6" target="Hatcnh2Sir8SRmg99cJd-1">
          <mxGeometry relative="1" as="geometry" />
        </mxCell>
        <mxCell id="Hatcnh2Sir8SRmg99cJd-6" value="NavBar.jsx" style="rounded=0;whiteSpace=wrap;html=1;fillColor=#dae8fc;strokeColor=#6c8ebf;" parent="1c1d494c118603dd-3" vertex="1">
          <mxGeometry x="455" y="400" width="105" height="40" as="geometry" />
        </mxCell>
        <mxCell id="QIrwqinoMJVfx_VkA9Hf-6" style="edgeStyle=orthogonalEdgeStyle;rounded=0;orthogonalLoop=1;jettySize=auto;html=1;entryX=0.5;entryY=0;entryDx=0;entryDy=0;" edge="1" parent="1c1d494c118603dd-3" source="Hatcnh2Sir8SRmg99cJd-7" target="Hatcnh2Sir8SRmg99cJd-1">
          <mxGeometry relative="1" as="geometry" />
        </mxCell>
        <mxCell id="Hatcnh2Sir8SRmg99cJd-7" value="Header.jsx" style="rounded=0;whiteSpace=wrap;html=1;fillColor=#dae8fc;strokeColor=#6c8ebf;" parent="1c1d494c118603dd-3" vertex="1">
          <mxGeometry x="270" y="210" width="105" height="40" as="geometry" />
        </mxCell>
        <mxCell id="Hatcnh2Sir8SRmg99cJd-1" value="App.js" style="rounded=0;whiteSpace=wrap;html=1;fillColor=#f8cecc;strokeColor=#b85450;" parent="1c1d494c118603dd-3" vertex="1">
          <mxGeometry x="270" y="400" width="105" height="40" as="geometry" />
        </mxCell>
        <mxCell id="Hatcnh2Sir8SRmg99cJd-32" value="True" style="text;html=1;strokeColor=none;fillColor=none;align=center;verticalAlign=middle;whiteSpace=wrap;rounded=0;" parent="1c1d494c118603dd-3" vertex="1">
          <mxGeometry x="140" y="270" width="60" height="30" as="geometry" />
        </mxCell>
        <mxCell id="Hatcnh2Sir8SRmg99cJd-34" value="False" style="text;html=1;strokeColor=none;fillColor=none;align=center;verticalAlign=middle;whiteSpace=wrap;rounded=0;" parent="1c1d494c118603dd-3" vertex="1">
          <mxGeometry x="10" y="390" width="60" height="30" as="geometry" />
        </mxCell>
        <mxCell id="Hatcnh2Sir8SRmg99cJd-43" value="" style="group;fillColor=#f5f5f5;fontColor=#333333;strokeColor=#666666;" parent="1c1d494c118603dd-3" vertex="1" connectable="0">
          <mxGeometry x="470" y="210" width="255" height="110" as="geometry" />
        </mxCell>
        <mxCell id="Hatcnh2Sir8SRmg99cJd-5" value="Categories.jsx" style="rounded=0;whiteSpace=wrap;html=1;fillColor=#dae8fc;strokeColor=#6c8ebf;" parent="Hatcnh2Sir8SRmg99cJd-43" vertex="1">
          <mxGeometry width="105" height="40" as="geometry" />
        </mxCell>
        <mxCell id="Hatcnh2Sir8SRmg99cJd-35" value="CategoriesList.jsx" style="rounded=0;whiteSpace=wrap;html=1;fillColor=#ffe6cc;strokeColor=#d79b00;" parent="Hatcnh2Sir8SRmg99cJd-43" vertex="1">
          <mxGeometry y="70" width="105" height="40" as="geometry" />
        </mxCell>
        <mxCell id="Hatcnh2Sir8SRmg99cJd-36" value="CategoryForm.jsx" style="rounded=0;whiteSpace=wrap;html=1;fillColor=#d5e8d4;strokeColor=#82b366;" parent="Hatcnh2Sir8SRmg99cJd-43" vertex="1">
          <mxGeometry x="150" width="105" height="40" as="geometry" />
        </mxCell>
        <mxCell id="Hatcnh2Sir8SRmg99cJd-37" value="CategoryItem" style="rounded=0;whiteSpace=wrap;html=1;fillColor=#ffe6cc;strokeColor=#d79b00;" parent="Hatcnh2Sir8SRmg99cJd-43" vertex="1">
          <mxGeometry x="150" y="70" width="105" height="40" as="geometry" />
        </mxCell>
        <mxCell id="Hatcnh2Sir8SRmg99cJd-39" value="" style="edgeStyle=orthogonalEdgeStyle;rounded=0;orthogonalLoop=1;jettySize=auto;html=1;" parent="Hatcnh2Sir8SRmg99cJd-43" source="Hatcnh2Sir8SRmg99cJd-35" target="Hatcnh2Sir8SRmg99cJd-5" edge="1">
          <mxGeometry relative="1" as="geometry" />
        </mxCell>
        <mxCell id="Hatcnh2Sir8SRmg99cJd-38" value="" style="edgeStyle=orthogonalEdgeStyle;rounded=0;orthogonalLoop=1;jettySize=auto;html=1;" parent="Hatcnh2Sir8SRmg99cJd-43" source="Hatcnh2Sir8SRmg99cJd-36" target="Hatcnh2Sir8SRmg99cJd-5" edge="1">
          <mxGeometry relative="1" as="geometry" />
        </mxCell>
        <mxCell id="Hatcnh2Sir8SRmg99cJd-40" value="" style="edgeStyle=orthogonalEdgeStyle;rounded=0;orthogonalLoop=1;jettySize=auto;html=1;" parent="Hatcnh2Sir8SRmg99cJd-43" source="Hatcnh2Sir8SRmg99cJd-37" target="Hatcnh2Sir8SRmg99cJd-35" edge="1">
          <mxGeometry relative="1" as="geometry" />
        </mxCell>
        <mxCell id="Hatcnh2Sir8SRmg99cJd-51" value="" style="group;fillColor=#f5f5f5;fontColor=#333333;strokeColor=#666666;" parent="1c1d494c118603dd-3" vertex="1" connectable="0">
          <mxGeometry x="470" y="550" width="247.5" height="110" as="geometry" />
        </mxCell>
        <mxCell id="Hatcnh2Sir8SRmg99cJd-4" value="Tasks.jsx" style="rounded=0;whiteSpace=wrap;html=1;fillColor=#dae8fc;strokeColor=#6c8ebf;" parent="Hatcnh2Sir8SRmg99cJd-51" vertex="1">
          <mxGeometry width="105" height="40" as="geometry" />
        </mxCell>
        <mxCell id="Hatcnh2Sir8SRmg99cJd-48" value="" style="edgeStyle=orthogonalEdgeStyle;rounded=0;orthogonalLoop=1;jettySize=auto;html=1;" parent="Hatcnh2Sir8SRmg99cJd-51" source="Hatcnh2Sir8SRmg99cJd-45" target="Hatcnh2Sir8SRmg99cJd-4" edge="1">
          <mxGeometry relative="1" as="geometry" />
        </mxCell>
        <mxCell id="Hatcnh2Sir8SRmg99cJd-45" value="TasksForm.jsx" style="rounded=0;whiteSpace=wrap;html=1;fillColor=#d5e8d4;strokeColor=#82b366;" parent="Hatcnh2Sir8SRmg99cJd-51" vertex="1">
          <mxGeometry x="142.5" width="105" height="40" as="geometry" />
        </mxCell>
        <mxCell id="Hatcnh2Sir8SRmg99cJd-50" value="" style="edgeStyle=orthogonalEdgeStyle;rounded=0;orthogonalLoop=1;jettySize=auto;html=1;" parent="Hatcnh2Sir8SRmg99cJd-51" source="Hatcnh2Sir8SRmg99cJd-46" target="Hatcnh2Sir8SRmg99cJd-4" edge="1">
          <mxGeometry relative="1" as="geometry" />
        </mxCell>
        <mxCell id="Hatcnh2Sir8SRmg99cJd-46" value="TasksList.jsx" style="rounded=0;whiteSpace=wrap;html=1;fillColor=#ffe6cc;strokeColor=#d79b00;" parent="Hatcnh2Sir8SRmg99cJd-51" vertex="1">
          <mxGeometry y="70" width="105" height="40" as="geometry" />
        </mxCell>
        <mxCell id="Hatcnh2Sir8SRmg99cJd-49" value="" style="edgeStyle=orthogonalEdgeStyle;rounded=0;orthogonalLoop=1;jettySize=auto;html=1;" parent="Hatcnh2Sir8SRmg99cJd-51" source="Hatcnh2Sir8SRmg99cJd-47" target="Hatcnh2Sir8SRmg99cJd-46" edge="1">
          <mxGeometry relative="1" as="geometry" />
        </mxCell>
        <mxCell id="Hatcnh2Sir8SRmg99cJd-47" value="TasksItem.jsx" style="rounded=0;whiteSpace=wrap;html=1;fillColor=#ffe6cc;strokeColor=#d79b00;" parent="Hatcnh2Sir8SRmg99cJd-51" vertex="1">
          <mxGeometry x="142.5" y="70" width="105" height="40" as="geometry" />
        </mxCell>
        <mxCell id="QIrwqinoMJVfx_VkA9Hf-8" style="edgeStyle=orthogonalEdgeStyle;rounded=0;orthogonalLoop=1;jettySize=auto;html=1;entryX=0.5;entryY=0;entryDx=0;entryDy=0;" edge="1" parent="1c1d494c118603dd-3" source="Hatcnh2Sir8SRmg99cJd-35" target="Hatcnh2Sir8SRmg99cJd-6">
          <mxGeometry relative="1" as="geometry" />
        </mxCell>
        <mxCell id="QIrwqinoMJVfx_VkA9Hf-9" style="edgeStyle=orthogonalEdgeStyle;rounded=0;orthogonalLoop=1;jettySize=auto;html=1;entryX=0.5;entryY=1;entryDx=0;entryDy=0;" edge="1" parent="1c1d494c118603dd-3" source="Hatcnh2Sir8SRmg99cJd-4" target="Hatcnh2Sir8SRmg99cJd-6">
          <mxGeometry relative="1" as="geometry" />
        </mxCell>
        <mxCell id="QIrwqinoMJVfx_VkA9Hf-10" style="edgeStyle=orthogonalEdgeStyle;rounded=0;orthogonalLoop=1;jettySize=auto;html=1;entryX=0.5;entryY=1;entryDx=0;entryDy=0;" edge="1" parent="1c1d494c118603dd-3" source="Hatcnh2Sir8SRmg99cJd-4" target="Hatcnh2Sir8SRmg99cJd-1">
          <mxGeometry relative="1" as="geometry" />
        </mxCell>
        <mxCell id="QIrwqinoMJVfx_VkA9Hf-13" value="Страница по умолчанию" style="text;html=1;strokeColor=none;fillColor=none;align=center;verticalAlign=middle;whiteSpace=wrap;rounded=0;" vertex="1" parent="1c1d494c118603dd-3">
          <mxGeometry x="325" y="570" width="130" height="30" as="geometry" />
        </mxCell>
        <mxCell id="QIrwqinoMJVfx_VkA9Hf-14" value="Ссылка в меню" style="text;html=1;strokeColor=none;fillColor=none;align=center;verticalAlign=middle;whiteSpace=wrap;rounded=0;" vertex="1" parent="1c1d494c118603dd-3">
          <mxGeometry x="520" y="480" width="60" height="30" as="geometry" />
        </mxCell>
        <mxCell id="QIrwqinoMJVfx_VkA9Hf-15" value="Ссылка в меню" style="text;html=1;strokeColor=none;fillColor=none;align=center;verticalAlign=middle;whiteSpace=wrap;rounded=0;" vertex="1" parent="1c1d494c118603dd-3">
          <mxGeometry x="520" y="350" width="60" height="30" as="geometry" />
        </mxCell>
        <mxCell id="1c1d494c118603dd-4" value="UI" style="swimlane;html=1;startSize=20;" parent="1c1d494c118603dd-1" vertex="1">
          <mxGeometry x="1310" y="20" width="370" height="970" as="geometry" />
        </mxCell>
        <mxCell id="Hatcnh2Sir8SRmg99cJd-22" style="edgeStyle=orthogonalEdgeStyle;rounded=0;orthogonalLoop=1;jettySize=auto;html=1;entryX=0;entryY=0.5;entryDx=0;entryDy=0;" parent="1c1d494c118603dd-1" source="Hatcnh2Sir8SRmg99cJd-18" target="Hatcnh2Sir8SRmg99cJd-2" edge="1">
          <mxGeometry relative="1" as="geometry">
            <Array as="points">
              <mxPoint x="130" y="320" />
            </Array>
          </mxGeometry>
        </mxCell>
        <mxCell id="Hatcnh2Sir8SRmg99cJd-33" style="edgeStyle=orthogonalEdgeStyle;rounded=0;orthogonalLoop=1;jettySize=auto;html=1;entryX=1;entryY=0.5;entryDx=0;entryDy=0;" parent="1c1d494c118603dd-1" source="Hatcnh2Sir8SRmg99cJd-2" target="Hatcnh2Sir8SRmg99cJd-18" edge="1">
          <mxGeometry relative="1" as="geometry">
            <Array as="points">
              <mxPoint x="340" y="440" />
            </Array>
          </mxGeometry>
        </mxCell>
      </root>
    </mxGraphModel>
  </diagram>
</mxfile>
